<svg xmlns="http://www.w3.org/2000/svg" viewBox="0 0 480 360" role="img">
  <defs>
    <linearGradient id="bg" x1="0" y1="0" x2="1" y2="1">
      <stop offset="0" stop-color="#f7efe0"/><stop offset="1" stop-color="#efe4cf"/>
    </linearGradient>
    <linearGradient id="navy" x1="0" y1="0" x2="0" y2="1">
      <stop offset="0" stop-color="#1d3252"/><stop offset="1" stop-color="#0c1d33"/>
    </linearGradient>
    <linearGradient id="brass" x1="0" y1="0" x2="1" y2="1">
      <stop offset="0" stop-color="#e7c98c"/><stop offset=".5" stop-color="#c19a55"/><stop offset="1" stop-color="#a2762f"/>
    </linearGradient>
    <radialGradient id="blob" cx=".5" cy=".5" r=".5">
      <stop offset="0" stop-color="#caa766" stop-opacity=".35"/><stop offset="1" stop-color="#caa766" stop-opacity="0"/>
    </radialGradient>
    <pattern id="dots" width="22" height="22" patternUnits="userSpaceOnUse">
      <circle cx="2" cy="2" r="1.3" fill="#bda77f" opacity=".35"/>
    </pattern>
    <filter id="sh" x="-30%" y="-30%" width="160%" height="160%">
      <feDropShadow dx="0" dy="8" stdDeviation="12" flood-color="#3a2c12" flood-opacity="0.18"/>
    </filter>
  </defs>
  <rect width="480" height="360" rx="18" fill="url(#bg)"/>
  <rect width="480" height="360" rx="18" fill="url(#dots)"/>
  <circle cx="400" cy="60" r="150" fill="url(#blob)"/>
  <circle cx="70" cy="320" r="120" fill="url(#blob)"/>
<g transform="rotate(0 240 188)" filter="url(#sh)"><rect x="150" y="78" width="180" height="220" rx="12" fill="#fffdf8" stroke="#e9dcc2"/><rect x="176" y="112" width="130" height="4.5" rx="2.25" fill="url(#brass)"/><rect x="176" y="132" width="130" height="4.5" rx="2.25" fill="#d7cbb6"/><rect x="176" y="152" width="130" height="4.5" rx="2.25" fill="#d7cbb6"/><rect x="176" y="172" width="130" height="4.5" rx="2.25" fill="#d7cbb6"/><rect x="176" y="192" width="78" height="4.5" rx="2.25" fill="#d7cbb6"/><rect x="176" y="232" width="60" height="20" rx="6" fill="url(#brass)"/><rect x="246" y="236" width="60" height="6" rx="3" fill="#d7cbb6"/></g><g filter="url(#sh)"><circle cx="120" cy="150" r="30" fill="#fffdf8" stroke="#e9dcc2"/><circle cx="120" cy="143.4" r="10.2" fill="url(#navy)"/><path d="M105 166.5 a15 15 0 0 1 30 0" fill="url(#navy)"/></g><g filter="url(#sh)"><circle cx="160" cy="150" r="30" fill="#fffdf8" stroke="#e9dcc2"/><circle cx="160" cy="143.4" r="10.2" fill="url(#brass)"/><path d="M145 166.5 a15 15 0 0 1 30 0" fill="url(#brass)"/></g><g filter="url(#sh)"><circle cx="350" cy="250" r="30" fill="url(#brass)"/><circle cx="350" cy="250" r="25" fill="none" stroke="#fff5e0" stroke-opacity=".5" stroke-width="2"/><path d="M350 235 L353 247 L365 250 L353 253 L350 265 L347 253 L335 250 L347 247 Z" fill="#7a5a26"/></g>
</svg>
